HIERARCHY
ROOT Hips
{
  OFFSET 0 89.5177 0.535
  CHANNELS 6 Xposition Yposition Zposition Zrotation Xrotation Yrotation
  JOINT Spine
  {
    OFFSET 12.0259 -0.162855 1.69034e-005
    CHANNELS 3 Zrotation Xrotation Yrotation
    JOINT Spine1
    {
      OFFSET 15.3169 -0.0121922 0
      CHANNELS 3 Zrotation Xrotation Yrotation
      JOINT Spine2
      {
        OFFSET 15.3176 -0.0121908 0
        CHANNELS 3 Zrotation Xrotation Yrotation
        JOINT Neck
        {
          OFFSET 19.9142 1.56338 0
          CHANNELS 3 Zrotation Xrotation Yrotation
          JOINT Head
          {
            OFFSET 6.92651 0 0
            CHANNELS 3 Zrotation Xrotation Yrotation
            End Site
            {
              OFFSET 20.7666 0 0
            }
          }
          JOINT LeftShoulder
          {
            OFFSET -6.20654 0.708824 7.28219
            CHANNELS 3 Zrotation Xrotation Yrotation
            JOINT LeftArm
            {
              OFFSET 14.108 0 -1.52588e-005
              CHANNELS 3 Zrotation Xrotation Yrotation
              JOINT LeftForeArm
              {
                OFFSET 28.5802 0 0
                CHANNELS 3 Zrotation Xrotation Yrotation
                JOINT LeftHand
                {
                  OFFSET 27.092 0 0
                  CHANNELS 3 Zrotation Xrotation Yrotation
                  End Site
                  {
                    OFFSET 9.55928 -0.186424 0.145352
                  }
                }
              }
            }
          }
          JOINT RightShoulder
          {
            OFFSET -6.20654 0.708866 -7.28218
            CHANNELS 3 Zrotation Xrotation Yrotation
            JOINT RightArm
            {
              OFFSET 14.108 0 1.52588e-005
              CHANNELS 3 Zrotation Xrotation Yrotation
              JOINT RightForeArm
              {
                OFFSET 28.5802 0 0
                CHANNELS 3 Zrotation Xrotation Yrotation
                JOINT RightHand
                {
                  OFFSET 27.092 0 0
                  CHANNELS 3 Zrotation Xrotation Yrotation
                  End Site
                  {
                    OFFSET 9.55929 -0.186417 -0.145354
                  }
                }
              }
            }
          }
        }
      }
    }
  }
  JOINT LeftUpLeg
  {
    OFFSET 0.005 -0.535 8.837
    CHANNELS 3 Zrotation Xrotation Yrotation
    JOINT LeftLeg
    {
      OFFSET 39.9035 0 0
      CHANNELS 3 Zrotation Xrotation Yrotation
      JOINT LeftFoot
      {
        OFFSET 39.6689 0 0
        CHANNELS 3 Zrotation Xrotation Yrotation
        JOINT LeftToe
        {
          OFFSET 10.1624 13.6296 0
          CHANNELS 3 Zrotation Xrotation Yrotation
          End Site
          {
            OFFSET 8.38147 0 0
          }
        }
      }
    }
  }
  JOINT RightUpLeg
  {
    OFFSET 0.005 -0.535 -8.837
    CHANNELS 3 Zrotation Xrotation Yrotation
    JOINT RightLeg
    {
      OFFSET 39.9035 0 0
      CHANNELS 3 Zrotation Xrotation Yrotation
      JOINT RightFoot
      {
        OFFSET 39.6689 0 0
        CHANNELS 3 Zrotation Xrotation Yrotation
        JOINT RightToe
        {
          OFFSET 10.1624 13.6296 0
          CHANNELS 3 Zrotation Xrotation Yrotation
          End Site
          {
            OFFSET 8.38147 0 0
          }
        }
      }
    }
  }
}
MOTION
Frames:	19
Frame Time:	0.0333333
459.978 84.6713 -229.392 107.251 54.5456 -14.2461 0.638273 -0.21265 -0.785187 1.27359 -0.433542 -1.56781 1.27359 -0.433542 -1.56782 -8.3043e-012 -9.0191e-006 -5.27751e-005 2.36261 7.64578 -5.69206 -179.509 -1.65133 -73.4419 -17.4965 11.4214 57.5714 -70.6399 -3.18055e-015 6.36111e-015 -15.0323 -38.8969 -10.7296 -178.237 5.49754 72.1851 0.204308 -2.27168 -65.7163 -68.5837 9.54166e-015 1.27222e-014 -38.9153 49.6621 35.0835 -30.4189 7.66653 179.817 -39.418 -6.36111e-015 -4.77083e-015 18.9593 2.30496 2.90266 90 9.09964e-021 6.36111e-015 -28.7187 -5.16043 170.954 -37.3638 -3.18056e-015 -7.95139e-015 18.8417 -2.95515 6.96174 90 2.42657e-020 -0 
459.934 84.7048 -229.625 108.016 55.8887 -15.2487 0.884128 -0.379527 -0.753952 1.76325 -0.770136 -1.50185 1.76325 -0.770136 -1.50186 -8.30589e-012 -9.0191e-006 -5.27751e-005 2.64 8.08319 -6.3106 -179.697 -1.0336 -73.6708 -16.8162 11.0106 57.248 -69.417 1.59028e-015 -6.36111e-015 -18.6121 -39.185 -12.929 -178.338 5.23704 72.3643 0.537501 -0.742313 -65.7594 -61.1572 3.18055e-015 -6.36111e-015 -37.9752 47.3752 33.1024 -30.6801 6.92527 179.842 -39.3749 -6.36111e-015 -1.59028e-015 18.7288 2.27309 2.76637 90 -6.06643e-021 -6.36111e-015 -29.2396 -9.33377 170.631 -37.7795 0 -1.59028e-015 18.6445 0.104795 5.96383 90 -6.06643e-021 6.36111e-015 
459.967 84.5206 -230.008 109.552 57.2384 -17.5386 0.992443 -0.404126 -0.591422 1.98074 -0.817941 -1.17564 1.98074 -0.817941 -1.17565 -8.30748e-012 -9.0191e-006 -5.27751e-005 3.50667 8.1871 -7.10027 -179.868 -0.456829 -73.9043 -16.9957 10.2687 56.8523 -67.0857 1.59028e-015 -6.36111e-015 -22.6264 -39.7689 -15.7079 -178.343 5.24171 72.4281 2.01412 0.626161 -65.6259 -53.2471 0 -4.77083e-015 -37.3956 45.6782 31.7195 -32.1852 9.14954 -178.009 -40.6768 3.18055e-015 -0 19.301 1.24132 2.40965 90 1.66827e-020 3.18055e-015 -30.2568 -12.6474 170.311 -38.2019 -3.18056e-015 -0 18.6927 -1.19578 5.74974 90 6.06643e-021 3.18055e-015 
460.099 84.0688 -230.373 110.351 57.082 -18.7875 1.12796 -0.134649 -0.489633 2.25473 -0.278432 -0.976368 2.25473 -0.278432 -0.976377 -8.30589e-012 -9.0191e-006 -5.27751e-005 3.71848 8.6988 -7.8623 -179.931 -0.234512 -73.5007 -17.3264 8.42319 56.0203 -63.9517 6.36111e-015 6.36111e-015 -25.3296 -40.7272 -17.3887 -178.361 5.11225 72.1941 3.67302 2.51741 -64.5395 -44.585 3.18055e-015 1.59028e-015 -36.9126 44.4889 30.7956 -34.8007 16.3587 -173.154 -42.9842 0 -0 20.6027 -1.82102 1.64551 90 6.82473e-021 -0 -32.3128 -15.0096 169.934 -39.8953 3.18056e-015 4.77083e-015 19.043 -3.12774 5.39721 90 -6.06643e-021 3.18055e-015 
460.539 83.7171 -230.835 111.301 55.7747 -19.3447 1.20551 0.0816187 -0.545157 2.41175 0.152221 -1.09176 2.41175 0.152221 -1.09177 -8.3043e-012 -9.0191e-006 -5.27751e-005 3.35496 10.168 -8.68608 -179.948 -0.166631 -72.5186 -16.2464 6.15009 54.7177 -61.3747 -3.18055e-015 -6.36111e-015 -27.4845 -42.3487 -19.5604 -178.581 4.40474 72.1271 4.90937 5.03541 -62.9785 -34.7678 0 -1.19271e-015 -35.9422 43.4432 29.5747 -38.0531 22.0923 -168.437 -44.3628 7.95139e-016 3.97569e-016 20.784 -3.43507 0.353093 90 -1.70618e-021 -7.95139e-016 -35.01 -15.5048 169.536 -41.3777 0 -1.59028e-015 18.9145 -4.1551 5.01311 90 0 -0 
461.382 83.3619 -231.272 113.065 55.2972 -19.7431 1.31812 -0.0198528 -0.825669 2.63582 -0.058216 -1.65051 2.63582 -0.0582162 -1.65052 -8.30748e-012 -9.0191e-006 -5.27751e-005 2.26625 12.0341 -9.21914 179.862 0.419781 -71.8183 -14.4405 3.69796 52.9089 -58.6813 3.18055e-015 -3.18055e-015 -30.7448 -44.6024 -22.9585 -178.925 3.30976 71.995 7.64109 8.2756 -61.8528 -25.3725 0 1.59028e-015 -34.7197 41.239 27.9532 -40.143 22.6138 -166.703 -44.8243 0 1.19271e-015 19.9273 -2.54976 -1.50356 90 -8.48352e-021 7.95139e-016 -38.2138 -15.127 167.858 -43.1395 -6.36111e-015 3.18056e-015 18.944 -4.74959 5.07849 90 -6.06643e-021 -9.54166e-015 
462.565 83.0715 -231.761 115.893 55.8115 -21.4265 1.43924 -0.251724 -1.09318 2.87347 -0.530303 -2.17957 2.87347 -0.530303 -2.17958 -8.30748e-012 -9.0191e-006 -5.27751e-005 0.88203 13.2432 -9.24257 179.484 1.58072 -71.9333 -13.3307 0.737213 51.0628 -54.8943 0 -3.18055e-015 -35.4393 -46.9513 -28.7723 -179.198 2.46853 72.0008 12.4069 11.3867 -61.5605 -18.5937 -3.18055e-015 -4.77083e-015 -34.0517 39.3255 27.6479 -41.4286 18.7983 -166.33 -44.3538 1.59028e-015 2.38542e-015 18.3847 -1.01645 -4.24053 90 -1.13746e-021 1.59028e-015 -42.0253 -17.0334 165.25 -44.4116 -6.36111e-015 -3.18056e-015 18.4678 -6.00575 4.95612 90 -6.06643e-021 -3.18055e-015 
463.874 82.8069 -232.006 117.761 56.6965 -22.363 1.7291 -0.413637 -1.39678 3.44777 -0.868631 -2.78041 3.44777 -0.868631 -2.78042 -8.31702e-012 -9.0191e-006 -5.27751e-005 -0.660985 13.7793 -8.89211 179.063 2.9408 -72.3112 -12.589 -3.148 49.1354 -50.4609 0 -3.18055e-015 -39.5814 -48.5315 -33.7044 -179.229 2.38039 72.0618 16.6751 13.2174 -61.3583 -15.0921 6.36111e-015 -1.59028e-015 -34.0385 38.6741 28.5468 -41.2151 14.8393 -165.511 -42.7424 0 -1.98785e-015 16.5512 -0.800952 -7.4329 90 -6.21202e-018 -0 -44.4622 -17.3528 162.875 -45.3647 6.36111e-015 -0 18.121 -6.31681 5.40653 90 0 -9.54166e-015 
465.308 82.3836 -232.064 119.193 57.0291 -22.9606 2.03956 -0.523115 -1.70622 4.06293 -1.10591 -3.39283 4.06293 -1.10591 -3.39284 -8.3043e-012 -9.0191e-006 -5.27751e-005 -2.35048 14.496 -8.58204 178.728 4.0623 -72.5912 -11.2393 -7.73042 47.1904 -47.2314 3.18055e-015 9.54166e-015 -42.5826 -49.6001 -37.2192 -179.189 2.52946 72.2122 18.3988 13.1516 -60.4328 -14.159 3.18055e-015 -0 -34.2116 39.1893 29.7157 -41.5236 12.0537 -163.646 -41.9032 -3.18055e-015 -3.18055e-015 15.1047 -1.13548 -7.74274 90 1.59028e-015 -3.18055e-015 -46.1668 -15.4635 161.357 -46.5164 -6.36111e-015 -0 18.0917 -5.80021 6.48058 90 1.21329e-020 3.18055e-015 
466.912 81.7722 -232.289 121.216 56.3548 -24.3445 2.19734 -0.592641 -1.97976 4.3733 -1.25992 -3.93555 4.3733 -1.25992 -3.93556 -8.30112e-012 -9.0191e-006 -5.27751e-005 -3.92552 15.6135 -8.14309 178.618 4.50614 -72.9285 -9.96537 -12.7125 45.2611 -45.2767 3.18055e-015 -0 -45.8061 -50.1116 -41.0288 -179.173 2.59732 72.3388 17.883 11.7557 -58.7971 -14.4374 0 3.18055e-015 -34.322 40.2485 30.2556 -42.3628 10.037 -160.729 -39.9061 0 -3.97569e-016 12.9483 -0.69719 -8.9925 90 -1.88845e-015 1.59028e-015 -49.4114 -14.7827 159.931 -47.8554 0 -0 17.621 -6.49222 7.06846 90 -1.81993e-020 3.18055e-015 
468.737 81.0203 -232.444 123.22 56.0358 -25.7946 2.42792 -0.805789 -2.25282 4.82309 -1.70519 -4.47009 4.82309 -1.70519 -4.47009 -8.3043e-012 -9.0191e-006 -5.27751e-005 -5.85352 16.8513 -7.68671 178.642 4.64441 -73.6848 -9.00737 -17.8651 43.4338 -44.516 3.18055e-015 3.18055e-015 -49.9246 -51.0441 -46.229 -179.182 2.57206 72.3529 16.0663 10.1876 -56.9906 -14.5095 -3.18055e-015 -3.18055e-015 -35.3463 41.6948 30.8691 -42.4297 7.91795 -158.11 -36.4875 0 -1.59028e-015 10.1935 0.247316 -10.4947 90 2.98177e-016 1.59028e-015 -52.5815 -13.9815 158.225 -49.3509 -6.36111e-015 -6.36111e-015 17.1908 -7.05269 7.8867 90 6.06643e-021 -0 
470.797 80.086 -232.462 125.789 56.2987 -28.0062 2.7131 -1.10086 -2.4663 5.37796 -2.31573 -4.87905 5.37796 -2.31573 -4.87906 -8.29794e-012 -9.0191e-006 -5.27751e-005 -8.21275 17.6335 -7.13355 178.576 5.2249 -74.7278 -8.18193 -23.0224 41.6133 -44.5913 9.54166e-015 -0 -54.1066 -51.7375 -51.711 -179.199 2.47224 72.0555 15.3105 9.53298 -55.4684 -14.6193 3.18055e-015 3.18055e-015 -36.4612 43.1656 31.9538 -42.4146 5.57313 -155.819 -32.6263 3.18055e-015 1.78906e-015 7.14668 1.0254 -11.0267 90 2.98177e-016 -1.59028e-015 -55.9831 -13.692 155.858 -51.0573 0 1.59028e-015 16.8116 -7.5894 8.88526 90 6.06643e-021 -0 
473.014 78.8978 -232.614 128.75 55.9137 -31.1289 2.89184 -1.20825 -2.57431 5.72859 -2.54315 -5.08609 5.72859 -2.54315 -5.0861 -8.31702e-012 -9.0191e-006 -5.27751e-005 -10.121 17.8782 -6.47055 178.497 5.99651 -75.902 -8.55976 -27.5218 39.4703 -44.8627 6.36111e-015 6.36111e-015 -58.1418 -52.2409 -57.0051 -179.217 2.35484 71.6137 16.4561 9.44683 -54.4496 -15.8234 -3.18055e-015 3.18055e-015 -37.8825 43.9925 33.5488 -43.7896 3.82446 -152.722 -29.8157 -1.59028e-015 6.26172e-015 5.99828 1.51094 -10.9169 90 2.18663e-015 -3.18055e-015 -60.487 -14.303 153.702 -52.9132 3.18056e-015 -0 16.021 -8.45501 9.43521 90 2.42657e-020 9.54166e-015 
475.508 77.6222 -232.172 131.205 56.4746 -33.6287 3.23786 -1.40875 -2.69506 6.40908 -2.96548 -5.30872 6.40908 -2.96548 -5.30873 -8.31066e-012 -9.0191e-006 -5.27751e-005 -12.1406 17.7361 -5.72784 178.458 6.66707 -76.9475 -10.1159 -31.4985 36.9095 -45.4122 -6.36111e-015 -0 -60.7889 -52.338 -60.3112 -179.174 2.43341 71.2513 18.7033 9.97518 -54.2547 -17.8792 0 9.54166e-015 -39.8371 44.0127 35.4961 -44.1768 2.07055 -150.704 -26.7934 1.59028e-015 2.98177e-015 5.20482 2.10241 -12.6727 90 3.97569e-016 -0 -61.8512 -11.5072 152.051 -54.4843 0 -0 16.1101 -7.22994 12.0218 90 -6.06643e-021 3.18055e-015 
478.422 76.3587 -231.877 135.152 56.0258 -37.8328 3.38547 -1.53121 -2.69905 6.699 -3.21702 -5.3059 6.699 -3.21702 -5.30591 -8.30748e-012 -9.0191e-006 -5.27751e-005 -14.3211 17.2943 -4.79198 178.496 7.08071 -77.9774 -12.9324 -35.1257 34.2142 -45.8853 -3.18055e-015 9.54166e-015 -62.2761 -51.9497 -62.3182 -179.194 2.33446 70.9377 20.8854 10.101 -54.4688 -21.0736 -9.54166e-015 1.59028e-015 -42.7011 44.225 38.3448 -45.9506 0.34175 -148.872 -23.6282 1.59028e-015 3.37934e-015 2.92811 3.09568 -15.6557 90 1.19271e-015 -3.18055e-015 -64.5756 -9.9994 150.309 -54.9744 -6.36111e-015 -0 15.0931 -6.61345 14.3269 90 -1.21329e-020 -3.18055e-015 
481.902 75.3583 -231.484 139.928 54.882 -42.7153 3.42319 -1.63323 -2.62264 6.77253 -3.41803 -5.1463 6.77253 -3.41803 -5.14631 -8.31384e-012 -9.0191e-006 -5.27751e-005 -16.1351 16.7283 -4.20167 178.55 7.45561 -78.9617 -16.0667 -38.5388 32.1048 -46.2795 -4.77083e-015 1.27222e-014 -62.5207 -51.8312 -62.6838 -179.244 2.16334 70.7312 22.5404 9.57884 -54.9483 -26.0862 -9.54166e-015 -1.59028e-015 -47.1443 45.1425 43.4057 -48.9137 -0.496205 -148.288 -20.8756 -1.59028e-015 -3.18055e-015 -2.34718 4.65542 -20.2101 90 -1.19271e-015 -0 -67.125 -8.72422 148.345 -53.3493 0 6.36111e-015 12.7916 -5.96694 17.0582 90 1.81993e-020 6.36111e-015 
485.899 74.6927 -230.916 143.895 52.8757 -46.5621 3.42563 -1.60139 -2.54498 6.78107 -3.34999 -4.99271 6.78107 -3.34999 -4.99272 -8.29794e-012 -9.0191e-006 -5.27751e-005 -18.1499 16.1648 -4.02974 178.63 7.86197 -80.0861 -18.7463 -41.5568 31.2507 -46.8195 -4.77083e-015 6.36111e-015 -62.4658 -51.5556 -62.7252 -179.264 2.08763 70.5809 23.5227 8.14982 -55.6357 -33.973 -3.18055e-015 -3.18055e-015 -53.6791 45.3478 50.4073 -56.6928 1.43543 -148.011 -25.6993 7.95139e-016 3.97569e-016 -3.78219 4.20658 -24.7399 90 5.2181e-016 -0 -68.3943 -7.26456 146.747 -48.8129 -3.18056e-015 -6.36111e-015 8.93851 -5.12274 20.299 90 1.21329e-020 -0 
490.322 74.4689 -230.333 147.764 49.8282 -49.4454 3.30787 -1.48969 -2.5497 6.5498 -3.12211 -5.01179 6.5498 -3.12211 -5.0118 -8.31702e-012 -9.0191e-006 -5.27751e-005 -19.8297 15.722 -4.29372 178.707 8.31294 -81.1288 -21.4838 -44.0327 30.9378 -47.0937 1.59028e-015 -0 -63.7238 -51.4829 -64.5475 -179.376 1.79422 70.8262 24.4421 6.47193 -57.0477 -43.9738 3.18055e-015 -7.95139e-015 -59.1331 43.2112 55.007 -66.6482 3.70338 -148.904 -33.4207 1.59028e-015 7.85199e-015 -2.28403 3.64644 -24.412 90 -6.06643e-021 -3.18055e-015 -68.5079 -5.5649 145.484 -40.6866 9.54167e-015 -3.18056e-015 3.48407 -3.99855 23.8301 90 -1.21329e-020 -6.36111e-015 
494.671 74.528 -229.402 150.934 47.4323 -51.9485 3.29923 -1.3922 -2.49063 6.53801 -2.92369 -4.89921 6.53801 -2.92369 -4.89922 -8.3043e-012 -9.0191e-006 -5.27751e-005 -20.4703 15.0392 -4.56927 178.768 8.87218 -82.0623 -24.1758 -45.2398 30.6931 -46.9511 -1.27222e-014 -6.36111e-015 -65.9237 -51.4941 -67.504 -179.623 1.11837 71.3827 23.9754 4.3235 -58.732 -53.8954 0 -3.97569e-015 -63.1385 40.3366 57.6859 -76.3012 6.48035 -149.994 -41.4328 -6.4605e-016 -3.0369e-015 0.101552 4.16535 -19.4507 90 -6.61146e-021 1.59028e-015 -65.8936 -5.76314 144.142 -28.5467 -3.18056e-015 -0 -2.84746 -4.06718 27.0594 90 0 -6.36111e-015 
